<svg width="28" height="33" viewBox="0 0 28 33" fill="none" xmlns="http://www.w3.org/2000/svg">
    <path d="M23.9579 17.6167H21.7925C22.0132 18.3289 22.1338 19.0975 22.1338 19.8986V29.544C22.1338 29.878 22.0845 30.1986 21.9947 30.4968H25.5746C26.9119 30.4968 27.9998 29.2145 27.9998 27.6385V22.3804C27.9998 19.7537 26.1866 17.6167 23.9579 17.6167Z" fill="#08A4BD"/>
    <path d="M5.86607 19.8986C5.86607 19.0974 5.98665 18.3289 6.20737 17.6167H4.04196C1.81322 17.6167 0 19.7537 0 22.3804V27.6386C0 29.2146 1.0879 30.4968 2.42518 30.4968H6.00514C5.91539 30.1985 5.86607 29.878 5.86607 29.544V19.8986Z" fill="#08A4BD"/>
    <path d="M16.4753 15.1348H11.5249C9.29613 15.1348 7.48291 17.2718 7.48291 19.8985V29.5439C7.48291 30.0701 7.84483 30.4967 8.2913 30.4967H19.7089C20.1553 30.4967 20.5172 30.0701 20.5172 29.5439V19.8985C20.5172 17.2718 18.704 15.1348 16.4753 15.1348Z" fill="#08A4BD"/>
    <path d="M14.0001 2.50342C11.3198 2.50342 9.13916 5.07343 9.13916 8.23247C9.13916 10.3752 10.1426 12.2466 11.6245 13.2291C12.3274 13.6951 13.1378 13.9615 14.0001 13.9615C14.8624 13.9615 15.6728 13.6951 16.3757 13.2291C17.8577 12.2466 18.8611 10.3752 18.8611 8.23247C18.8611 5.07349 16.6805 2.50342 14.0001 2.50342Z" fill="#08A4BD"/>
    <path d="M5.46446 7.84326C3.45989 7.84326 1.8291 9.76526 1.8291 12.1278C1.8291 14.4903 3.45989 16.4123 5.46446 16.4123C5.97295 16.4123 6.45715 16.2882 6.897 16.065C7.65749 15.6792 8.28454 14.9961 8.67254 14.1405C8.94489 13.54 9.09982 12.8549 9.09982 12.1278C9.09982 9.76532 7.46903 7.84326 5.46446 7.84326Z" fill="#08A4BD"/>
    <path d="M22.5358 7.84326C20.5312 7.84326 18.9004 9.76526 18.9004 12.1278C18.9004 12.855 19.0553 13.54 19.3277 14.1405C19.7157 14.9962 20.3427 15.6792 21.1032 16.065C21.5431 16.2882 22.0273 16.4123 22.5358 16.4123C24.5403 16.4123 26.1711 14.4903 26.1711 12.1278C26.1711 9.76526 24.5403 7.84326 22.5358 7.84326Z" fill="#08A4BD"/>
</svg>
